<svg width="40" height="24" viewBox="0 0 40 24" fill="none" xmlns="http://www.w3.org/2000/svg">
<path d="M2.44531 0.46875L5.23438 7.42969L8.02344 0.46875H9.48242V9H8.35742V5.67773L8.46289 2.0918L5.66211 9H4.80078L2.00586 2.10938L2.11719 5.67773V9H0.992188V0.46875H2.44531ZM11.0117 5.77148C11.0117 5.15039 11.1328 4.5918 11.375 4.0957C11.6211 3.59961 11.9609 3.2168 12.3945 2.94727C12.832 2.67773 13.3301 2.54297 13.8887 2.54297C14.752 2.54297 15.4492 2.8418 15.9805 3.43945C16.5156 4.03711 16.7832 4.83203 16.7832 5.82422V5.90039C16.7832 6.51758 16.6641 7.07227 16.4258 7.56445C16.1914 8.05273 15.8535 8.43359 15.4121 8.70703C14.9746 8.98047 14.4707 9.11719 13.9004 9.11719C13.041 9.11719 12.3438 8.81836 11.8086 8.2207C11.2773 7.62305 11.0117 6.83203 11.0117 5.84766V5.77148ZM12.1016 5.90039C12.1016 6.60352 12.2637 7.16797 12.5879 7.59375C12.916 8.01953 13.3535 8.23242 13.9004 8.23242C14.4512 8.23242 14.8887 8.01758 15.2129 7.58789C15.5371 7.1543 15.6992 6.54883 15.6992 5.77148C15.6992 5.07617 15.5332 4.51367 15.2012 4.08398C14.873 3.65039 14.4355 3.43359 13.8887 3.43359C13.3535 3.43359 12.9219 3.64648 12.5938 4.07227C12.2656 4.49805 12.1016 5.10742 12.1016 5.90039ZM17.8789 5.77734C17.8789 4.80469 18.1094 4.02344 18.5703 3.43359C19.0312 2.83984 19.6348 2.54297 20.3809 2.54297C21.123 2.54297 21.7109 2.79688 22.1445 3.30469V0H23.2285V9H22.2324L22.1797 8.32031C21.7461 8.85156 21.1426 9.11719 20.3691 9.11719C19.6348 9.11719 19.0352 8.81641 18.5703 8.21484C18.1094 7.61328 17.8789 6.82812 17.8789 5.85938V5.77734ZM18.9629 5.90039C18.9629 6.61914 19.1113 7.18164 19.4082 7.58789C19.7051 7.99414 20.1152 8.19727 20.6387 8.19727C21.3262 8.19727 21.8281 7.88867 22.1445 7.27148V4.35938C21.8203 3.76172 21.3223 3.46289 20.6504 3.46289C20.1191 3.46289 19.7051 3.66797 19.4082 4.07812C19.1113 4.48828 18.9629 5.0957 18.9629 5.90039ZM28.8301 8.37305C28.4082 8.86914 27.7891 9.11719 26.9727 9.11719C26.2969 9.11719 25.7812 8.92188 25.4258 8.53125C25.0742 8.13672 24.8965 7.55469 24.8926 6.78516V2.66016H25.9766V6.75586C25.9766 7.7168 26.3672 8.19727 27.1484 8.19727C27.9766 8.19727 28.5273 7.88867 28.8008 7.27148V2.66016H29.8848V9H28.8535L28.8301 8.37305ZM32.7148 9H31.6309V0H32.7148V9ZM37.0859 9.11719C36.2266 9.11719 35.5273 8.83594 34.9883 8.27344C34.4492 7.70703 34.1797 6.95117 34.1797 6.00586V5.80664C34.1797 5.17773 34.2988 4.61719 34.5371 4.125C34.7793 3.62891 35.1152 3.24219 35.5449 2.96484C35.9785 2.68359 36.4473 2.54297 36.9512 2.54297C37.7754 2.54297 38.416 2.81445 38.873 3.35742C39.3301 3.90039 39.5586 4.67773 39.5586 5.68945V6.14062H35.2637C35.2793 6.76562 35.4609 7.27148 35.8086 7.6582C36.1602 8.04102 36.6055 8.23242 37.1445 8.23242C37.5273 8.23242 37.8516 8.1543 38.1172 7.99805C38.3828 7.8418 38.6152 7.63477 38.8145 7.37695L39.4766 7.89258C38.9453 8.70898 38.1484 9.11719 37.0859 9.11719ZM36.9512 3.43359C36.5137 3.43359 36.1465 3.59375 35.8496 3.91406C35.5527 4.23047 35.3691 4.67578 35.2988 5.25H38.4746V5.16797C38.4434 4.61719 38.2949 4.19141 38.0293 3.89062C37.7637 3.58594 37.4043 3.43359 36.9512 3.43359ZM14.1816 20.293C14.0762 21.1953 13.7422 21.8926 13.1797 22.3848C12.6211 22.873 11.877 23.1172 10.9473 23.1172C9.93945 23.1172 9.13086 22.7559 8.52148 22.0332C7.91602 21.3105 7.61328 20.3438 7.61328 19.1328V18.3125C7.61328 17.5195 7.75391 16.8223 8.03516 16.2207C8.32031 15.6191 8.72266 15.1582 9.24219 14.8379C9.76172 14.5137 10.3633 14.3516 11.0469 14.3516C11.9531 14.3516 12.6797 14.6055 13.2266 15.1133C13.7734 15.6172 14.0918 16.3164 14.1816 17.2109H13.0508C12.9531 16.5312 12.7402 16.0391 12.4121 15.7344C12.0879 15.4297 11.6328 15.2773 11.0469 15.2773C10.3281 15.2773 9.76367 15.543 9.35352 16.0742C8.94727 16.6055 8.74414 17.3613 8.74414 18.3418V19.168C8.74414 20.0938 8.9375 20.8301 9.32422 21.377C9.71094 21.9238 10.252 22.1973 10.9473 22.1973C11.5723 22.1973 12.0508 22.0566 12.3828 21.7754C12.7188 21.4902 12.9414 20.9961 13.0508 20.293H14.1816ZM17.1758 14.4688L19.9648 21.4297L22.7539 14.4688H24.2129V23H23.0879V19.6777L23.1934 16.0918L20.3926 23H19.5312L16.7363 16.1094L16.8477 19.6777V23H15.7227V14.4688H17.1758ZM26.1992 23V14.4688H28.6074C29.3496 14.4688 30.0059 14.6328 30.5762 14.9609C31.1465 15.2891 31.5859 15.7559 31.8945 16.3613C32.207 16.9668 32.3652 17.6621 32.3691 18.4473V18.9922C32.3691 19.7969 32.2129 20.502 31.9004 21.1074C31.5918 21.7129 31.1484 22.1777 30.5703 22.502C29.9961 22.8262 29.3262 22.9922 28.5605 23H26.1992ZM27.3242 15.3945V22.0801H28.5078C29.375 22.0801 30.0488 21.8105 30.5293 21.2715C31.0137 20.7324 31.2559 19.9648 31.2559 18.9688V18.4707C31.2559 17.502 31.0273 16.75 30.5703 16.2148C30.1172 15.6758 29.4727 15.4023 28.6367 15.3945H27.3242Z" fill="black"/>
</svg>
