<svg width="37" height="14" viewBox="0 0 37 14" fill="none" xmlns="http://www.w3.org/2000/svg">
<path d="M4.92188 7.61279C3.55501 7.21989 2.55892 6.73844 1.93359 6.16846C1.3138 5.59294 1.00391 4.8846 1.00391 4.04346C1.00391 3.09163 1.38298 2.30583 2.14111 1.68604C2.90479 1.06071 3.89535 0.748047 5.11279 0.748047C5.94287 0.748047 6.68164 0.908529 7.3291 1.22949C7.9821 1.55046 8.48568 1.99316 8.83984 2.55762C9.19954 3.12207 9.37939 3.7391 9.37939 4.40869H7.77734C7.77734 3.67822 7.54492 3.10547 7.08008 2.69043C6.61523 2.26986 5.95947 2.05957 5.11279 2.05957C4.32699 2.05957 3.71273 2.23389 3.27002 2.58252C2.83285 2.92562 2.61426 3.4043 2.61426 4.01855C2.61426 4.51107 2.82178 4.92887 3.23682 5.27197C3.65739 5.60954 4.36849 5.91943 5.37012 6.20166C6.37728 6.48389 7.16309 6.79655 7.72754 7.13965C8.29753 7.47721 8.7181 7.87288 8.98926 8.32666C9.26595 8.78044 9.4043 9.31445 9.4043 9.92871C9.4043 10.9082 9.02246 11.694 8.25879 12.2861C7.49512 12.8727 6.47412 13.166 5.1958 13.166C4.36572 13.166 3.59098 13.0083 2.87158 12.6929C2.15218 12.3719 1.59603 11.9347 1.20312 11.3813C0.815755 10.828 0.62207 10.1999 0.62207 9.49707H2.22412C2.22412 10.2275 2.49251 10.8058 3.0293 11.2319C3.57161 11.6525 4.29378 11.8628 5.1958 11.8628C6.03695 11.8628 6.68164 11.6912 7.12988 11.3481C7.57812 11.005 7.80225 10.5374 7.80225 9.94531C7.80225 9.35319 7.59473 8.89665 7.17969 8.57568C6.76465 8.24919 6.01204 7.92822 4.92188 7.61279ZM14.9409 13.166C13.7235 13.166 12.7329 12.7676 11.9692 11.9707C11.2056 11.1683 10.8237 10.0975 10.8237 8.7583V8.47607C10.8237 7.58512 10.9925 6.79102 11.3301 6.09375C11.6732 5.39095 12.1491 4.8431 12.7578 4.4502C13.3721 4.05176 14.0361 3.85254 14.75 3.85254C15.9176 3.85254 16.8252 4.23714 17.4727 5.00635C18.1201 5.77555 18.4438 6.87679 18.4438 8.31006V8.94922H12.3594C12.3815 9.83464 12.6388 10.5513 13.1313 11.0991C13.6294 11.6414 14.2603 11.9126 15.0239 11.9126C15.5662 11.9126 16.0256 11.8019 16.4019 11.5806C16.7782 11.3592 17.1074 11.0659 17.3896 10.7007L18.3276 11.4312C17.575 12.5877 16.4461 13.166 14.9409 13.166ZM14.75 5.11426C14.1302 5.11426 13.61 5.34115 13.1895 5.79492C12.7689 6.24316 12.5088 6.87402 12.4092 7.6875H16.9082V7.57129C16.8639 6.79102 16.6536 6.18783 16.2773 5.76172C15.901 5.33008 15.3919 5.11426 14.75 5.11426ZM21.6812 4.01855L21.731 5.14746C22.4172 4.28418 23.3136 3.85254 24.4204 3.85254C26.3185 3.85254 27.2759 4.92334 27.2925 7.06494V13H25.7568V7.05664C25.7513 6.40918 25.6019 5.9305 25.3086 5.62061C25.0208 5.31071 24.5698 5.15576 23.9556 5.15576C23.4575 5.15576 23.0203 5.28857 22.644 5.5542C22.2677 5.81982 21.9744 6.16846 21.7642 6.6001V13H20.2285V4.01855H21.6812ZM29.2349 8.43457C29.2349 7.05664 29.5614 5.94987 30.2144 5.11426C30.8674 4.27311 31.7223 3.85254 32.7793 3.85254C33.8307 3.85254 34.6636 4.21224 35.2778 4.93164V0.25H36.8135V13H35.4023L35.3276 12.0371C34.7134 12.7897 33.8584 13.166 32.7627 13.166C31.7223 13.166 30.8729 12.7399 30.2144 11.8877C29.5614 11.0355 29.2349 9.92318 29.2349 8.55078V8.43457ZM30.7705 8.60889C30.7705 9.62712 30.9808 10.424 31.4014 10.9995C31.8219 11.575 32.403 11.8628 33.1445 11.8628C34.1185 11.8628 34.8296 11.4256 35.2778 10.5513V6.42578C34.8185 5.5791 34.113 5.15576 33.1611 5.15576C32.4085 5.15576 31.8219 5.44629 31.4014 6.02734C30.9808 6.6084 30.7705 7.46891 30.7705 8.60889Z" fill="black"/>
</svg>
